<?xml version="1.0" encoding="utf-8"?>
<!-- Generator: Adobe Illustrator 21.1.0, SVG Export Plug-In . SVG Version: 6.00 Build 0)  -->
<svg version="1.1" id="Capa_1" xmlns="http://www.w3.org/2000/svg" xmlns:xlink="http://www.w3.org/1999/xlink" x="0px" y="0px"
	 viewBox="0 0 512 512" style="enable-background:new 0 0 512 512;" xml:space="preserve">
<style type="text/css">
	.st0{fill:#333333;}
</style>
<g>
	<path class="st0" d="M343.8,204.4c-24.2,0-45.1,14.3-54.5,35h177.5c-9.5-20.7-30.3-35-54.5-35H343.8z"/>
	<path class="st0" d="M99.8,204.4c-24.2,0-45.1,14.3-54.5,35h177.5c-9.5-20.7-30.3-35-54.5-35H99.8z"/>
	<path class="st0" d="M75,137.6h48.4v36.9h30v-36.9h48.4V181c11.2,4.5,21.4,11.3,30,19.8v-63.2h48.4v63.2c8.6-8.5,18.8-15.3,30-19.8
		v-43.4h48.4v36.9h30v-36.9H437v40.4c10.9,3.1,21.1,8.3,30,15.2v-70.5V70.4c0-8.3-6.7-15-15-15s-15,6.7-15,15v37.2H75V70.4
		c0-8.3-6.7-15-15-15s-15,6.7-15,15v52.2v70.5c8.9-6.9,19.1-12,30-15.2V137.6z"/>
	<path class="st0" d="M477,269.4H35c-19.3,0-35,15.7-35,35v70c0,17.6,13.1,32.2,30,34.6v32.6c0,8.3,6.7,15,15,15s15-6.7,15-15v-32.2
		h392v32.2c0,8.3,6.7,15,15,15s15-6.7,15-15v-32.6c16.9-2.4,30-17,30-34.6v-70C512,285.1,496.3,269.4,477,269.4z"/>
</g>
</svg>
