<?xml version="1.0" encoding="utf-8"?>
<!-- Generator: Adobe Illustrator 21.0.0, SVG Export Plug-In . SVG Version: 6.00 Build 0)  -->
<svg version="1.1" id="Capa_1" xmlns="http://www.w3.org/2000/svg" xmlns:xlink="http://www.w3.org/1999/xlink" x="0px" y="0px"
	 viewBox="0 0 512 512" style="enable-background:new 0 0 512 512;" xml:space="preserve">
<style type="text/css">
	.st0{fill:#333333;}
</style>
<g>
	<path class="st0" d="M46,180h45v317c0,8.3,6.7,15,15,15h300c8.3,0,15-6.7,15-15V180h45c8.3,0,15-6.7,15-15s-6.7-15-15-15H46
		c-8.3,0-15,6.7-15,15S37.7,180,46,180z M181,452c0,8.3-6.7,15-15,15s-15-6.7-15-15V210c0-8.3,6.7-15,15-15s15,6.7,15,15V452z
		 M271,452c0,8.3-6.7,15-15,15s-15-6.7-15-15V210c0-8.3,6.7-15,15-15c8.3,0,15,6.7,15,15V452z M361,452c0,8.3-6.7,15-15,15
		s-15-6.7-15-15V210c0-8.3,6.7-15,15-15s15,6.7,15,15V452z"/>
	<path class="st0" d="M451,75c0-8.3-6.7-15-15-15H331V15c0-8.3-6.7-15-15-15H196c-8.3,0-15,6.7-15,15v45H76c-8.3,0-15,6.7-15,15v45
		h390V75z M211,30h90v30h-90V30z"/>
</g>
</svg>
