<svg id="Capa_1" data-name="Capa 1" xmlns="http://www.w3.org/2000/svg" viewBox="0 0 512.01 512.01"><defs><style>.cls-1{fill:#333;}</style></defs><title>ticketCart</title><circle class="cls-1" cx="208" cy="448" r="48"/><circle class="cls-1" cx="400" cy="448" r="48"/><path class="cls-1" d="M508.29,85.76A16,16,0,0,0,496,80H119.93L106,27.88A16,16,0,0,0,90.56,16H16a16,16,0,0,0,0,32H78.27L91.68,98.23a16,16,0,0,0,.38,1.9l51.2,191.36c0,.15.1.3.14.45l17.14,64.19A16,16,0,0,0,176,368H432a16,16,0,0,0,0-32H188.29l-9-33.67L464.8,288a16,16,0,0,0,14.94-13.09l32-176A15.9,15.9,0,0,0,508.29,85.76ZM368,208H272a16,16,0,0,1,0-32h96a16,16,0,0,1,0,32Z"/></svg>