<?xml version="1.0" encoding="utf-8"?>
<!-- Generator: Adobe Illustrator 21.0.0, SVG Export Plug-In . SVG Version: 6.00 Build 0)  -->
<svg version="1.1" id="Capa_1" xmlns="http://www.w3.org/2000/svg" xmlns:xlink="http://www.w3.org/1999/xlink" x="0px" y="0px"
	 viewBox="0 0 172.1 172.1" style="enable-background:new 0 0 172.1 172.1;" xml:space="preserve">
<style type="text/css">
	.st0{fill:#333333;}
</style>
<g>
	<path class="st0" d="M137,20.4h-3.6c-1.4-5.4-6.2-9.4-12-9.4h-16.9C100.9,4.5,94,0,86.1,0c-8,0-14.8,4.5-18.4,11H50.7
		c-5.8,0-10.6,4-12,9.4h-3.6c-6.9,0-12.5,5.6-12.5,12.5v126.8c0,6.9,5.6,12.5,12.5,12.5H137c6.9,0,12.5-5.6,12.5-12.5V32.9
		C149.4,26,143.9,20.4,137,20.4z M86.1,12.1c4.9,0,9,4,9,9c0,4.9-4,9-9,9c-5,0-9-4-9-9S81.1,12.1,86.1,12.1z M49.8,131.6
		c-3.4,0-6.2-2.8-6.2-6.2c0-3.4,2.8-6.2,6.2-6.2c3.5,0,6.2,2.8,6.2,6.2C56.1,128.8,53.3,131.6,49.8,131.6z M49.8,100.4
		c-3.4,0-6.2-2.8-6.2-6.2c0-3.4,2.8-6.2,6.2-6.2c3.5,0,6.2,2.8,6.2,6.2C56.1,97.6,53.3,100.4,49.8,100.4z M49.8,69.2
		c-3.4,0-6.2-2.8-6.2-6.2c0-3.4,2.8-6.2,6.2-6.2c3.5,0,6.2,2.8,6.2,6.2C56.1,66.4,53.3,69.2,49.8,69.2z M125.1,131.6H70.3
		c-3.5,0-6.2-2.8-6.2-6.2c0-3.4,2.8-6.2,6.2-6.2h54.8c3.5,0,6.2,2.8,6.2,6.2C131.3,128.8,128.5,131.6,125.1,131.6z M125.1,100.4
		H70.3c-3.5,0-6.2-2.8-6.2-6.2c0-3.4,2.8-6.2,6.2-6.2h54.8c3.5,0,6.2,2.8,6.2,6.2C131.3,97.6,128.5,100.4,125.1,100.4z M125.1,69.2
		H70.3c-3.5,0-6.2-2.8-6.2-6.2c0-3.4,2.8-6.2,6.2-6.2h54.8c3.5,0,6.2,2.8,6.2,6.2C131.3,66.4,128.5,69.2,125.1,69.2z"/>
</g>
</svg>
