<?xml version="1.0" encoding="utf-8"?>
<!-- Generator: Adobe Illustrator 21.0.0, SVG Export Plug-In . SVG Version: 6.00 Build 0)  -->
<svg version="1.1" id="Capa_1" xmlns="http://www.w3.org/2000/svg" xmlns:xlink="http://www.w3.org/1999/xlink" x="0px" y="0px"
	 viewBox="0 0 512 512" style="enable-background:new 0 0 512 512;" xml:space="preserve">
<style type="text/css">
	.st0{fill:#333333;}
</style>
<g>
	<path class="st0" d="M488.3,239.7c0.2,8.4-6.5,15.3-15,15.3c-8.1,0-14.8-6.5-15-14.7c-0.5-22.6-6.6-53.7-32.7-72.9
		c-42-30.8-115.4-16.8-165.4-2.3c-2.7,0.8-5.6,0.8-8.4,0c-50-14.5-123.4-28.5-165.4,2.3c-26.2,19.2-32.2,50.2-32.7,72.9
		c-0.1,6.2-4,11.3-9.3,13.5c-10.1,4.1-21-3.5-20.8-14.2c1.1-49.2,23.2-91.4,70.1-110.2c17-6.6,38.2-10.9,66.4-10.4
		c-0.1-0.1,0.8,1.1-33.9-45.4C101.9,44.5,122.7,0,160.8,0c4.2,0,8.2,1.7,11,4.8c0.1,0.1,16.3,17,43.9,25.6
		c12.8-20.9,34.4-28.3,35.5-28.7c3.1-1,6.4-1,9.5,0c1.1,0.4,22.7,7.8,35.5,28.7C323.8,21.8,340,5,340.2,4.8C343,1.7,347,0,351.2,0
		c38.2,0,58.9,44.5,34.6,73.7c-20.4,27.3-5.4,7.2-33.9,45.4c-0.2,0.2,29.7-1.7,58.7,7.6C461.7,143.2,487.2,186.7,488.3,239.7
		L488.3,239.7z"/>
	<path class="st0" d="M444.5,282.6c-0.2-0.3,2.5,3.4-74.8-103c-24.2-2-51,2.1-74.4,7.4c2.8,3.6,6,6.9,9.8,9.7c6.6,5,8,14.4,3,21
		c-5,6.7-14.4,8-21,3c-9.8-7.3-17-16.4-22.4-25.8c-5.7,1.1-11.5,1.1-17.2,0c-5.4,9.4-12.6,18.5-22.4,25.8c-6.6,4.9-16,3.7-21-3
		c-5-6.6-3.6-16,3-21c3.8-2.8,7-6.1,9.7-9.7c-23.7-5.4-50.4-9.4-74.4-7.4c-77.2,106.3-74.6,102.7-74.8,103
		c-47.5,69-21.3,164.2,54.5,199c86.5,39.6,177.3,41.5,267.9,0C465.8,446.8,491.9,351.6,444.5,282.6z M271,405v3
		c0,8.7-6.9,15.2-15,15.2c-8.3,0-15-6.7-15-15v-1.4c-6.9-1.2-13.2-3.8-21.2-9c-7.1-4.7-8.8-14.1-4.3-20.9c4.5-6.9,13.8-8.9,20.8-4.3
		c7.3,4.8,9.7,5.2,19.7,5.1c9.6-0.1,13.5-7.6,14.2-12.1c0.9-5.4-1.4-9.7-7.5-11.8c-11.4-4-24.9-9.2-34.3-16.5
		c-20.6-16.2-14.4-53.2,12.6-63v-2c0-8.7,6.9-15.2,15-15.2c8.3,0,15,6.7,15,15v1.3c7.7,2.2,13.5,6,16.9,9.1c-0.1,0.1-0.1,0.1,0,0.2
		c6.1,5.6,6.5,15.1,0.9,21.1c-5.6,6.1-15,6.5-21.2,1c-3.9-2.9-9.8-4.1-16-2.2c-3.6,1.1-5.5,4.9-5.5,8.3c0,1.6,0.5,2.6,0.7,2.8
		c5.7,4.4,16.2,8.5,25.8,11.9C311.9,339.1,307.6,391.8,271,405L271,405z"/>
</g>
</svg>
